#include "music.h"
#include "pitches.h"

const int Notes[338] = {
    NOTE_E4, NOTE_D4, NOTE_CS4, NOTE_D4, NOTE_F4, 0, 0, 0, NOTE_G4, NOTE_F4, NOTE_E4, NOTE_F4, NOTE_A4, 0, 0, 0, NOTE_AS4, NOTE_A4, NOTE_GS4, NOTE_A4, NOTE_E5, NOTE_D5, NOTE_CS5, NOTE_D5, NOTE_E5, NOTE_D5, NOTE_CS5, NOTE_D5, NOTE_F5, 0, 0, 0, NOTE_D5, 0, NOTE_F5, 0, NOTE_C5, 0, NOTE_B4, 0, NOTE_A4, 0, NOTE_B4, 0, NOTE_C5, 0, NOTE_B4, 0, NOTE_A4, 0, NOTE_B4, 0, NOTE_C5, 0, NOTE_B4, 0, NOTE_A4, 0, NOTE_GS4, 0, NOTE_A4, 0, 0, 0, NOTE_F4, 0, NOTE_G4, 0, NOTE_A4, 0, NOTE_A4, 0, NOTE_D5, NOTE_C5, NOTE_AS4, NOTE_A4, NOTE_G4, 0, 0, 0, NOTE_F4, 0, NOTE_G4, 0, NOTE_A4, 0, NOTE_A4, 0, NOTE_D5, NOTE_C5, NOTE_AS4, NOTE_A4, NOTE_G4, 0, 0, 0, NOTE_D4, 0, NOTE_E4, 0, NOTE_F4, 0, NOTE_F4, 0, NOTE_AS4, NOTE_A4, NOTE_G4, NOTE_F4, NOTE_E4, 0, 0, 0, NOTE_D4, 0, NOTE_E4, 0, NOTE_F4, 0, NOTE_F4, 0, NOTE_AS4, NOTE_A4, NOTE_G4, NOTE_F4, NOTE_E4, 0, 0, 0, NOTE_E4, NOTE_D4, NOTE_CS4, NOTE_D4, NOTE_F4, 0, 0, 0, NOTE_G4, NOTE_F4, NOTE_E4, NOTE_F4, NOTE_A4, 0, 0, 0, NOTE_AS4, NOTE_A4, NOTE_GS4, NOTE_A4, NOTE_E5, NOTE_D5, NOTE_CS5, NOTE_D5, NOTE_E5, NOTE_D5, NOTE_CS5, NOTE_D5, NOTE_F5, 0, 0, 0, NOTE_D5, 0, NOTE_E5, 0, NOTE_F5, 0, NOTE_E5, 0, NOTE_D5, 0, NOTE_CS5, 0, NOTE_D5, 0, NOTE_A4, 0, NOTE_AS4, 0, NOTE_G4, 0, NOTE_F4, 0, 0, 0, NOTE_E4, 0, NOTE_D4, NOTE_E4, NOTE_D5, 0, 0, 0, NOTE_D5, 0, NOTE_E5, 0, NOTE_FS5, 0, 0, 0, NOTE_D5, 0, NOTE_E5, 0, NOTE_FS5, 0, NOTE_E5, 0, NOTE_D5, 0, NOTE_CS5, 0, NOTE_B4, 0, NOTE_CS5, 0, NOTE_D5, 0, NOTE_E5, 0, NOTE_CS5, 0, NOTE_A4, 0, NOTE_D5, 0, NOTE_E5, 0, NOTE_FS5, 0, 0, 0, NOTE_D5, 0, NOTE_E5, 0, NOTE_FS5, 0, NOTE_E5, 0, NOTE_D5, 0, NOTE_CS5, 0, NOTE_B4, 0, NOTE_E5, 0, NOTE_CS5, 0, NOTE_A4, 0, NOTE_D5, 0, 0, 0, NOTE_D5, 0, NOTE_E5, 0, NOTE_FS5, 0, 0, 0, NOTE_D5, 0, NOTE_E5, 0, NOTE_FS5, 0, NOTE_E5, 0, NOTE_D5, 0, NOTE_CS5, 0, NOTE_B4, 0, NOTE_CS5, 0, NOTE_D5, 0, NOTE_E5, 0, NOTE_CS5, 0, NOTE_A4, 0, NOTE_D5, 0, NOTE_E5, 0, NOTE_FS5, 0, 0, 0, NOTE_D5, 0, NOTE_E5, 0, NOTE_FS5, 0, NOTE_E5, 0, NOTE_D5, 0, NOTE_CS5, 0, NOTE_B4, 0, NOTE_E5, 0, NOTE_CS5, 0, NOTE_A4, 0, NOTE_D5, 0, 0, 0, 0, 0, 0, 0, 0, 0, 0, 0, 0, 0, 0, 0, 0, 0, 0, 0, 0, 0
};